<mxfile host="app.diagrams.net" modified="2024-03-08T03:45:01.877Z" agent="Mozilla/5.0 (Macintosh; Intel Mac OS X 10_15_6) AppleWebKit/537.36 (KHTML, like Gecko) Chrome/108.0.5359.95 Safari/537.36" etag="Bu-KgsdvHdL1R2ylsrwd" version="24.0.2" type="github">
  <diagram name="第 1 页" id="9BZdloZdPXbtKQPZ9AlU">
    <mxGraphModel dx="2193" dy="691" grid="1" gridSize="10" guides="1" tooltips="1" connect="1" arrows="1" fold="1" page="1" pageScale="1" pageWidth="827" pageHeight="1169" math="0" shadow="0">
      <root>
        <mxCell id="0" />
        <mxCell id="1" parent="0" />
        <mxCell id="iIJYMMnLSl6CzRDzTWIC-2" value="参考规划" style="ellipse;whiteSpace=wrap;html=1;" vertex="1" parent="1">
          <mxGeometry x="-100" y="530" width="120" height="80" as="geometry" />
        </mxCell>
        <mxCell id="iIJYMMnLSl6CzRDzTWIC-3" value="规划列表查询" style="rounded=1;whiteSpace=wrap;html=1;" vertex="1" parent="1">
          <mxGeometry x="130" y="410" width="120" height="60" as="geometry" />
        </mxCell>
        <mxCell id="iIJYMMnLSl6CzRDzTWIC-6" style="edgeStyle=orthogonalEdgeStyle;rounded=0;orthogonalLoop=1;jettySize=auto;html=1;exitX=1;exitY=0.5;exitDx=0;exitDy=0;" edge="1" parent="1" source="iIJYMMnLSl6CzRDzTWIC-4" target="iIJYMMnLSl6CzRDzTWIC-5">
          <mxGeometry relative="1" as="geometry" />
        </mxCell>
        <mxCell id="iIJYMMnLSl6CzRDzTWIC-4" value="新建规划" style="rounded=1;whiteSpace=wrap;html=1;" vertex="1" parent="1">
          <mxGeometry x="130" y="660" width="120" height="60" as="geometry" />
        </mxCell>
        <mxCell id="iIJYMMnLSl6CzRDzTWIC-10" style="edgeStyle=orthogonalEdgeStyle;rounded=0;orthogonalLoop=1;jettySize=auto;html=1;exitX=1;exitY=0.5;exitDx=0;exitDy=0;entryX=0.5;entryY=0;entryDx=0;entryDy=0;" edge="1" parent="1" source="iIJYMMnLSl6CzRDzTWIC-5" target="iIJYMMnLSl6CzRDzTWIC-8">
          <mxGeometry relative="1" as="geometry" />
        </mxCell>
        <mxCell id="iIJYMMnLSl6CzRDzTWIC-5" value="新建规划" style="ellipse;whiteSpace=wrap;html=1;" vertex="1" parent="1">
          <mxGeometry x="440" y="650" width="120" height="80" as="geometry" />
        </mxCell>
        <mxCell id="iIJYMMnLSl6CzRDzTWIC-11" style="edgeStyle=orthogonalEdgeStyle;rounded=0;orthogonalLoop=1;jettySize=auto;html=1;exitX=0.5;exitY=1;exitDx=0;exitDy=0;entryX=0.5;entryY=0;entryDx=0;entryDy=0;" edge="1" parent="1" source="iIJYMMnLSl6CzRDzTWIC-8" target="iIJYMMnLSl6CzRDzTWIC-9">
          <mxGeometry relative="1" as="geometry" />
        </mxCell>
        <mxCell id="iIJYMMnLSl6CzRDzTWIC-8" value="任务池" style="shape=parallelogram;perimeter=parallelogramPerimeter;whiteSpace=wrap;html=1;fixedSize=1;" vertex="1" parent="1">
          <mxGeometry x="707" y="570" width="120" height="60" as="geometry" />
        </mxCell>
        <mxCell id="iIJYMMnLSl6CzRDzTWIC-13" style="edgeStyle=orthogonalEdgeStyle;rounded=0;orthogonalLoop=1;jettySize=auto;html=1;exitX=1;exitY=0.5;exitDx=0;exitDy=0;entryX=0;entryY=0.5;entryDx=0;entryDy=0;" edge="1" parent="1" source="iIJYMMnLSl6CzRDzTWIC-9" target="iIJYMMnLSl6CzRDzTWIC-12">
          <mxGeometry relative="1" as="geometry" />
        </mxCell>
        <mxCell id="iIJYMMnLSl6CzRDzTWIC-9" value="分配" style="shape=document;whiteSpace=wrap;html=1;boundedLbl=1;" vertex="1" parent="1">
          <mxGeometry x="707" y="690" width="120" height="80" as="geometry" />
        </mxCell>
        <mxCell id="iIJYMMnLSl6CzRDzTWIC-16" style="edgeStyle=orthogonalEdgeStyle;rounded=0;orthogonalLoop=1;jettySize=auto;html=1;exitX=1;exitY=0.5;exitDx=0;exitDy=0;entryX=0;entryY=0.5;entryDx=0;entryDy=0;" edge="1" parent="1" source="iIJYMMnLSl6CzRDzTWIC-12" target="iIJYMMnLSl6CzRDzTWIC-14">
          <mxGeometry relative="1" as="geometry" />
        </mxCell>
        <mxCell id="iIJYMMnLSl6CzRDzTWIC-17" style="edgeStyle=orthogonalEdgeStyle;rounded=0;orthogonalLoop=1;jettySize=auto;html=1;exitX=1;exitY=0.5;exitDx=0;exitDy=0;entryX=0;entryY=0.5;entryDx=0;entryDy=0;" edge="1" parent="1" source="iIJYMMnLSl6CzRDzTWIC-12" target="iIJYMMnLSl6CzRDzTWIC-15">
          <mxGeometry relative="1" as="geometry" />
        </mxCell>
        <mxCell id="iIJYMMnLSl6CzRDzTWIC-21" style="edgeStyle=orthogonalEdgeStyle;rounded=0;orthogonalLoop=1;jettySize=auto;html=1;exitX=1;exitY=0.5;exitDx=0;exitDy=0;entryX=0;entryY=0.5;entryDx=0;entryDy=0;" edge="1" parent="1" source="iIJYMMnLSl6CzRDzTWIC-12" target="iIJYMMnLSl6CzRDzTWIC-18">
          <mxGeometry relative="1" as="geometry" />
        </mxCell>
        <mxCell id="iIJYMMnLSl6CzRDzTWIC-22" style="edgeStyle=orthogonalEdgeStyle;rounded=0;orthogonalLoop=1;jettySize=auto;html=1;exitX=1;exitY=0.5;exitDx=0;exitDy=0;entryX=0;entryY=0.5;entryDx=0;entryDy=0;" edge="1" parent="1" source="iIJYMMnLSl6CzRDzTWIC-12" target="iIJYMMnLSl6CzRDzTWIC-19">
          <mxGeometry relative="1" as="geometry" />
        </mxCell>
        <mxCell id="iIJYMMnLSl6CzRDzTWIC-23" style="edgeStyle=orthogonalEdgeStyle;rounded=0;orthogonalLoop=1;jettySize=auto;html=1;exitX=1;exitY=0.5;exitDx=0;exitDy=0;entryX=0;entryY=0.5;entryDx=0;entryDy=0;" edge="1" parent="1" source="iIJYMMnLSl6CzRDzTWIC-12" target="iIJYMMnLSl6CzRDzTWIC-20">
          <mxGeometry relative="1" as="geometry" />
        </mxCell>
        <mxCell id="iIJYMMnLSl6CzRDzTWIC-12" value="日历" style="ellipse;whiteSpace=wrap;html=1;" vertex="1" parent="1">
          <mxGeometry x="1030" y="690" width="120" height="80" as="geometry" />
        </mxCell>
        <mxCell id="iIJYMMnLSl6CzRDzTWIC-14" value="单日删除" style="rounded=1;whiteSpace=wrap;html=1;" vertex="1" parent="1">
          <mxGeometry x="1280" y="520" width="120" height="60" as="geometry" />
        </mxCell>
        <mxCell id="iIJYMMnLSl6CzRDzTWIC-15" value="任务拖拽移动" style="rounded=1;whiteSpace=wrap;html=1;" vertex="1" parent="1">
          <mxGeometry x="1280" y="610" width="120" height="60" as="geometry" />
        </mxCell>
        <mxCell id="iIJYMMnLSl6CzRDzTWIC-18" value="保存规划" style="rounded=1;whiteSpace=wrap;html=1;" vertex="1" parent="1">
          <mxGeometry x="1280" y="700" width="120" height="60" as="geometry" />
        </mxCell>
        <mxCell id="iIJYMMnLSl6CzRDzTWIC-19" value="另存" style="rounded=1;whiteSpace=wrap;html=1;" vertex="1" parent="1">
          <mxGeometry x="1280" y="790" width="120" height="60" as="geometry" />
        </mxCell>
        <mxCell id="iIJYMMnLSl6CzRDzTWIC-20" value="取消" style="rounded=1;whiteSpace=wrap;html=1;" vertex="1" parent="1">
          <mxGeometry x="1280" y="880" width="120" height="60" as="geometry" />
        </mxCell>
      </root>
    </mxGraphModel>
  </diagram>
</mxfile>
